<svg width="170" height="169" xmlns="http://www.w3.org/2000/svg" xmlns:xlink="http://www.w3.org/1999/xlink" overflow="hidden"><defs><clipPath id="clip0"><rect x="986" y="441" width="170" height="169"/></clipPath><clipPath id="clip1"><rect x="987" y="442" width="168" height="168"/></clipPath><clipPath id="clip2"><rect x="987" y="442" width="168" height="168"/></clipPath><clipPath id="clip3"><rect x="987" y="442" width="168" height="168"/></clipPath></defs><g clip-path="url(#clip0)" transform="translate(-986 -441)"><g clip-path="url(#clip1)"><g clip-path="url(#clip2)"><g clip-path="url(#clip3)"><path d="M1032.5 533C1032.5 511.825 1049.82 494.5 1071 494.5 1092.18 494.5 1109.5 511.825 1109.5 533 1109.5 554.175 1092.18 571.5 1071 571.5 1049.82 571.5 1032.5 554.175 1032.5 533ZM1074.5 484.175 1074.5 477 1081.5 477C1083.43 477 1085 475.425 1085 473.5 1085 471.575 1083.43 470 1081.5 470L1060.5 470C1058.57 470 1057 471.575 1057 473.5 1057 475.425 1058.57 477 1060.5 477L1067.5 477 1067.5 484.175C1042.12 485.925 1022 507.1 1022 533 1022 546.3 1027.25 558.375 1036 567.3L1029.35 580.425C1028.47 582.175 1029.18 584.275 1030.93 585.15 1031.45 585.325 1031.97 585.5 1032.5 585.5 1033.72 585.5 1034.95 584.8 1035.65 583.575L1041.43 572.025C1049.65 578.325 1059.8 582 1071 582 1082.2 582 1092.35 578.325 1100.57 572.025L1106.35 583.575C1107.05 584.8 1108.28 585.5 1109.5 585.5 1110.03 585.5 1110.55 585.325 1111.07 585.15 1112.82 584.275 1113.53 582.175 1112.65 580.425L1106 567.3C1114.57 558.55 1120 546.3 1120 533 1120 507.1 1099.88 485.925 1074.5 484.175Z" fill="#420065" fill-rule="nonzero" fill-opacity="1"/><path d="M1067.5 529.5 1043 529.5 1043 536.5 1071 536.5C1072.93 536.5 1074.5 534.925 1074.5 533L1074.5 505 1067.5 505 1067.5 529.5Z" fill="#420065" fill-rule="nonzero" fill-opacity="1"/><path d="M1127.35 484.35 1112.82 469.825C1110.03 467.025 1105.65 467.025 1102.85 469.825L1093.75 478.75 1118.25 503.25 1127.35 494.15C1129.97 491.525 1129.97 486.975 1127.35 484.35Z" fill="#420065" fill-rule="nonzero" fill-opacity="1"/><path d="M1048.25 478.75 1039.15 469.65C1036.35 466.85 1031.97 466.85 1029.18 469.65L1014.65 484.175C1011.85 486.975 1011.85 491.35 1014.65 494.15L1023.75 503.25 1048.25 478.75Z" fill="#420065" fill-rule="nonzero" fill-opacity="1"/></g></g></g></g></svg>