<svg width="475" height="200" viewBox="0 0 475 200" fill="none" xmlns="http://www.w3.org/2000/svg">
<path d="M228.027 68.632V58.855H187.427V68.632H202.16V104.344H213.294V68.632H228.027Z" fill="white"/>
<path d="M261.295 87.302C261.091 76.168 253.351 69.243 243.711 69.243C233.798 69.243 225.651 76.575 225.651 87.302C225.651 98.097 233.798 105.362 243.643 105.362C251.45 105.362 257.629 101.899 260.548 94.703L250.907 92.734C249.074 96.061 246.155 96.672 243.643 96.672C239.976 96.672 237.193 94.16 236.31 90.086H261.295V87.302ZM243.711 78.069C246.834 78.069 249.549 79.766 250.568 83.432H236.514C237.532 79.97 240.655 78.069 243.711 78.069Z" fill="white"/>
<path d="M289.674 94.295C288.248 95.11 286.212 95.653 284.718 95.653C281.867 95.653 280.169 94.228 280.169 90.697V78.884H290.217V70.261H280.169V60.213H269.306V70.261H263.128V78.884H269.306V91.783C269.306 100.745 274.398 105.362 282.885 105.362C286.755 105.362 289.538 104.276 292.186 102.85L289.674 94.295Z" fill="white"/>
<path d="M318.936 69.7859C313.369 69.7859 309.635 72.7049 307.191 76.7789V70.261H296.328V104.344H307.191V93.6839C307.191 84.8579 311.332 80.9199 318.936 80.9199H320.905L321.38 70.0579C320.566 69.8539 319.887 69.7859 318.936 69.7859Z" fill="white"/>
<path d="M361.641 70.261H350.778V72.977C348.13 70.601 344.6 69.243 340.187 69.243C331.157 69.243 323.553 76.575 323.553 87.302C323.553 98.097 331.157 105.362 340.187 105.362C344.6 105.362 348.13 104.004 350.778 101.628V104.344H361.641V70.261ZM342.427 96.129C337.675 96.129 334.212 92.598 334.212 87.302C334.212 82.075 337.675 78.476 342.427 78.476C346.84 78.476 350.778 82.075 350.778 87.302C350.778 92.598 346.84 96.129 342.427 96.129Z" fill="white"/>
<path d="M228.672 145.445H213.12V109.733H201.918V155.221H228.672V145.445Z" fill="white"/>
<path d="M250.044 120.257C239.724 120.257 231.169 127.453 231.169 138.18C231.169 148.975 239.724 156.172 250.044 156.172C260.16 156.172 268.714 148.975 268.714 138.18C268.714 127.453 260.16 120.257 250.044 120.257ZM250.044 147.006C245.631 147.006 241.625 143.544 241.625 138.18C241.625 132.885 245.631 129.354 250.044 129.354C254.253 129.354 258.259 132.885 258.259 138.18C258.259 143.544 254.253 147.006 250.044 147.006Z" fill="white"/>
<path d="M309.45 121.139H298.791V123.38C296.347 121.275 292.952 120.121 288.539 120.121C279.645 120.121 272.109 127.114 272.109 136.551C272.109 146.192 279.645 153.253 288.539 153.253C292.952 153.253 296.347 152.098 298.791 149.994V150.944C298.791 156.308 295.261 159.227 290.304 159.227C286.774 159.227 284.873 158.073 282.293 155.018L273.263 159.906C276.59 165.405 282.565 168.121 290.372 168.121C301.439 168.121 309.45 162.35 309.45 151.827V121.139ZM290.847 144.359C286.095 144.359 282.7 141.1 282.7 136.551C282.7 132.002 286.095 128.811 290.847 128.811C295.193 128.811 298.791 132.002 298.791 136.551C298.791 141.1 295.193 144.359 290.847 144.359Z" fill="white"/>
<path d="M323.368 104.913C319.702 104.913 317.122 107.764 317.122 111.091C317.122 114.553 319.702 117.133 323.368 117.133C327.034 117.133 329.682 114.553 329.682 111.091C329.682 107.764 327.034 104.913 323.368 104.913ZM328.8 155.221V121.139H317.937V155.221H328.8Z" fill="white"/>
<path d="M353.581 146.735C348.692 146.735 345.434 143.204 345.434 138.18C345.434 133.224 348.692 129.626 353.581 129.626C357.043 129.626 359.827 131.527 360.777 135.668L370.961 133.224C369.06 125.213 361.864 120.121 353.581 120.121C343.397 120.121 334.978 127.453 334.978 138.18C334.978 148.975 343.397 156.24 353.581 156.24C362.067 156.24 369.264 151.012 370.961 142.933L360.981 140.76C359.827 144.902 357.043 146.735 353.581 146.735Z" fill="white"/>
<path d="M412.444 121.139H401.581V123.855C398.933 121.479 395.403 120.121 390.99 120.121C381.96 120.121 374.356 127.453 374.356 138.18C374.356 148.975 381.96 156.24 390.99 156.24C395.403 156.24 398.933 154.882 401.581 152.506V155.221H412.444V121.139ZM393.23 147.006C388.478 147.006 385.015 143.476 385.015 138.18C385.015 132.953 388.478 129.354 393.23 129.354C397.643 129.354 401.581 132.953 401.581 138.18C401.581 143.476 397.643 147.006 393.23 147.006Z" fill="white"/>
<path d="M431.183 106.338H420.32V155.221H431.183V106.338Z" fill="white"/>
<mask id="mask0" mask-type="alpha" maskUnits="userSpaceOnUse" x="54" y="42" width="110" height="119">
<path fill-rule="evenodd" clip-rule="evenodd" d="M135.749 42.157C135.36 43.665 135.153 45.246 135.153 46.875C135.153 57.293 143.611 65.751 154.028 65.751C157.465 65.751 160.689 64.83 163.466 63.222V140.142C160.961 137.898 157.653 136.533 154.028 136.533C146.215 136.533 139.872 142.876 139.872 150.69C139.872 154.314 141.237 157.622 143.48 160.127H99.592C101.2 157.351 102.121 154.127 102.121 150.69C102.121 140.272 93.663 131.814 83.246 131.814C72.828 131.814 64.37 140.272 64.37 150.69C64.37 154.127 65.291 157.351 66.899 160.127H54.933V97.976C56.409 98.498 57.997 98.783 59.651 98.783C67.465 98.783 73.808 92.439 73.808 84.626C73.808 76.813 67.465 70.47 59.651 70.47C57.997 70.47 56.409 70.754 54.933 71.276V42.157H135.749Z" fill="#C4C4C4"/>
</mask>
<g mask="url(#mask0)">
<path fill-rule="evenodd" clip-rule="evenodd" d="M59.651 84.626L82.985 150.855L154.028 150.69V46.875L59.651 84.626V84.626Z" stroke="white" stroke-opacity="0.85" stroke-width="9" stroke-miterlimit="0" stroke-linejoin="round"/>
<path d="M154.028 46.875L83.246 150.69" stroke="white" stroke-opacity="0.85" stroke-width="6" stroke-miterlimit="0" stroke-linejoin="round"/>
<path d="M59.651 84.626L154.028 150.69" stroke="white" stroke-opacity="0.55" stroke-width="6" stroke-miterlimit="0" stroke-linejoin="round"/>
</g>
<path d="M59.834 99.148C67.7532 99.148 74.173 92.7282 74.173 84.809C74.173 76.8898 67.7532 70.47 59.834 70.47C51.9148 70.47 45.495 76.8898 45.495 84.809C45.495 92.7282 51.9148 99.148 59.834 99.148Z" stroke="white" stroke-width="9" stroke-miterlimit="0" stroke-linejoin="round"/>
<path d="M154.077 164.457C161.869 164.457 168.185 158.141 168.185 150.349C168.185 142.557 161.869 136.241 154.077 136.241C146.285 136.241 139.969 142.557 139.969 150.349C139.969 158.141 146.285 164.457 154.077 164.457Z" stroke="white" stroke-width="9" stroke-miterlimit="0" stroke-linejoin="round"/>
<path d="M83.246 169.565C93.6703 169.565 102.121 161.114 102.121 150.69C102.121 140.266 93.6703 131.815 83.246 131.815C72.8216 131.815 64.371 140.266 64.371 150.69C64.371 161.114 72.8216 169.565 83.246 169.565Z" stroke="white" stroke-width="9" stroke-miterlimit="0" stroke-linejoin="round"/>
<path d="M154.028 65.75C164.452 65.75 172.903 57.2994 172.903 46.875C172.903 36.4506 164.452 28 154.028 28C143.604 28 135.153 36.4506 135.153 46.875C135.153 57.2994 143.604 65.75 154.028 65.75Z" stroke="white" stroke-width="9" stroke-miterlimit="0" stroke-linejoin="round"/>
</svg>
