<svg width="520" height="520" viewBox="0 0 520 520" fill="none" xmlns="http://www.w3.org/2000/svg">
<g clip-path="url(#clip0)">
<mask id="mask0" mask-type="alpha" maskUnits="userSpaceOnUse" x="75" y="67" width="369" height="402">
<path fill-rule="evenodd" clip-rule="evenodd" d="M349.746 67.1152C348.423 72.2405 347.72 77.6138 347.72 83.1503C347.72 118.558 376.466 147.304 411.87 147.304C423.552 147.304 434.509 144.174 443.947 138.709V400.136C435.433 392.509 424.19 387.87 411.87 387.87C385.316 387.87 363.758 409.428 363.758 435.986C363.758 448.302 368.398 459.545 376.021 468.059H226.859C232.324 458.624 235.454 447.667 235.454 435.986C235.454 400.578 206.708 371.832 171.304 371.832C135.896 371.832 107.15 400.578 107.15 435.986C107.15 447.667 110.28 458.624 115.746 468.059H75.0768V256.827C80.0933 258.601 85.4904 259.57 91.1118 259.57C117.669 259.57 139.227 238.008 139.227 211.454C139.227 184.9 117.669 163.342 91.1118 163.342C85.4904 163.342 80.0933 164.308 75.0768 166.082V67.1152H349.746V67.1152Z" fill="#C4C4C4"/>
</mask>
<g mask="url(#mask0)">
<path fill-rule="evenodd" clip-rule="evenodd" d="M91.1118 211.454L170.417 436.546L411.87 435.986V83.1503L91.1118 211.454V211.454Z" stroke="white" stroke-opacity="0.85" stroke-width="30.5882" stroke-miterlimit="0" stroke-linejoin="round"/>
<path d="M411.87 83.1503L171.304 435.986" stroke="white" stroke-opacity="0.84" stroke-width="20.3922" stroke-miterlimit="0" stroke-linejoin="round"/>
<path d="M91.1118 211.454L411.87 435.986" stroke="white" stroke-opacity="0.55" stroke-width="20.3922" stroke-miterlimit="0" stroke-linejoin="round"/>
</g>
<path d="M91.7339 260.81C118.649 260.81 140.468 238.991 140.468 212.076C140.468 185.161 118.649 163.342 91.7339 163.342C64.8189 163.342 43 185.161 43 212.076C43 238.991 64.8189 260.81 91.7339 260.81Z" stroke="white" stroke-width="30.5882" stroke-miterlimit="0" stroke-linejoin="round"/>
<path d="M412.037 482.775C438.518 482.775 459.986 461.308 459.986 434.827C459.986 408.345 438.518 386.878 412.037 386.878C385.556 386.878 364.088 408.345 364.088 434.827C364.088 461.308 385.556 482.775 412.037 482.775Z" stroke="white" stroke-width="30.5882" stroke-miterlimit="0" stroke-linejoin="round"/>
<path d="M171.304 500.136C206.733 500.136 235.454 471.415 235.454 435.986C235.454 400.556 206.733 371.835 171.304 371.835C135.875 371.835 107.154 400.556 107.154 435.986C107.154 471.415 135.875 500.136 171.304 500.136Z" stroke="white" stroke-width="30.5882" stroke-miterlimit="0" stroke-linejoin="round"/>
<path d="M411.87 147.301C447.3 147.301 476.021 118.58 476.021 83.1503C476.021 47.7211 447.3 19 411.87 19C376.441 19 347.72 47.7211 347.72 83.1503C347.72 118.58 376.441 147.301 411.87 147.301Z" stroke="white" stroke-width="30.5882" stroke-miterlimit="0" stroke-linejoin="round"/>
</g>
<defs>
<clipPath id="clip0">
<rect width="520" height="520" fill="white"/>
</clipPath>
</defs>
</svg>
